PathFileType	4	(X/Y/Z)	RBDS09static.trc
DataRate	CameraRate	NumFrames	NumMarkers	Units	OrigDataRate	OrigDataStartFrame	OrigNumFrames
150.000000	150.000000	4	48	mm	150.000000	112	150
Frame#	Time	L.Ankle			L.Ankle.Medial			L.ASIS			L.GTR			L.Heel.Bottom			L.Heel.Lateral			L.Heel.Top			L.HF			L.Iliac.Crest			L.Knee			L.Knee.Medial			L.MT1			L.MT2			L.MT5			L.PSIS			L.Shank.Bottom.Lateral			L.Shank.Bottom.Medial			L.Shank.Top.Lateral			L.Shank.Top.Medial			L.Thigh.Bottom.Lateral			L.Thigh.Bottom.Medial			L.Thigh.Top.Lateral			L.Thigh.Top.Medial			L.TT			R.Ankle			R.Ankle.Medial			R.ASIS			R.GTR			R.Heel.Bottom			R.Heel.Lateral			R.Heel.Top			R.HF			R.Iliac.Crest			R.Knee			R.Knee.Medial			R.MT1			R.MT2			R.MT5			R.PSIS			R.Shank.Bottom.Lateral			R.Shank.Bottom.Medial			R.Shank.Top.Lateral			R.Shank.Top.Medial			R.Thigh.Bottom.Lateral			R.Thigh.Bottom.Medial			R.Thigh.Top.Lateral			R.Thigh.Top.Medial			R.TT			
		X1	Y1	Z1	X2	Y2	Z2	X3	Y3	Z3	X4	Y4	Z4	X5	Y5	Z5	X6	Y6	Z6	X7	Y7	Z7	X8	Y8	Z8	X9	Y9	Z9	X10	Y10	Z10	X11	Y11	Z11	X12	Y12	Z12	X13	Y13	Z13	X14	Y14	Z14	X15	Y15	Z15	X16	Y16	Z16	X17	Y17	Z17	X18	Y18	Z18	X19	Y19	Z19	X20	Y20	Z20	X21	Y21	Z21	X22	Y22	Z22	X23	Y23	Z23	X24	Y24	Z24	X25	Y25	Z25	X26	Y26	Z26	X27	Y27	Z27	X28	Y28	Z28	X29	Y29	Z29	X30	Y30	Z30	X31	Y31	Z31	X32	Y32	Z32	X33	Y33	Z33	X34	Y34	Z34	X35	Y35	Z35	X36	Y36	Z36	X37	Y37	Z37	X38	Y38	Z38	X39	Y39	Z39	X40	Y40	Z40	X41	Y41	Z41	X42	Y42	Z42	X43	Y43	Z43	X44	Y44	Z44	X45	Y45	Z45	X46	Y46	Z46	X47	Y47	Z47	X48	Y48	Z48	

113	0.7466666666666667	693.3949584960938	98.38271331787109	1047.548217773438	709.842529296875	109.4764251708984	1133.824584960938	822.6336669921875	983.6521606445313	1113.200927734375	746.5933837890625	902.677490234375	1069.526489257813	627.7695922851563	38.7296257019043	1081.544189453125	664.3273315429688	60.68716430664063	1044.086547851563	635.1945190429688	88.45878601074219	1084.005859375	707.00244140625	459.7755126953125	1051.592651367188	757.5632934570313	1046.716674804688	1080.489501953125	707.9291381835938	523.360107421875	1058.1533203125	700.4182739257813	507.3757629394531	1187.357055664063	837.2560424804688	55.0919189453125	1136.214477539063	835.7556762695313	70.03187561035156	1086.140502929688	810.7953491210938	51.43928146362305	1028.029541015625	663.58544921875	1019.784790039063	1200.622802734375	683.4795532226563	193.3110961914063	1037.441650390625	644.1383056640625	188.1095275878906	1073.115966796875	670.9393310546875	272.4960327148438	1031.906127929688	631.541259765625	268.1637268066406	1067.818481445313	684.9949340820313	642.06689453125	1056.130126953125	638.0020141601563	644.0142822265625	1112.354125976563	689.8466796875	752.8370361328125	1059.0908203125	649.1573486328125	753.8988037109375	1115.618408203125	757.1951293945313	440.4349365234375	1108.141845703125	698.3894653320313	99.48187255859375	1416.47021484375	714.2379760742188	115.5163955688477	1328.991088867188	829.399658203125	980.113525390625	1347.833251953125	760.1004638671875	898.6439819335938	1394.920532226563	630.512939453125	38.05485916137695	1376.599853515625	667.3786010742188	60.448486328125	1418.117309570313	638.5664672851563	86.49325561523438	1374.307861328125	721.4165649414063	456.6912231445313	1418.686401367188	774.9541625976563	1048.80224609375	1388.662353515625	725.7630004882813	523.9339599609375	1412.180786132813	699.605712890625	503.5465087890625	1282.2568359375	835.2279052734375	59.96869277954102	1326.83544921875	843.4815673828125	69.22299194335938	1372.66064453125	812.1049194335938	49.25136566162109	1436.712646484375	666.5017700195313	1014.720886230469	1276.536743164063	671.804443359375	185.2078247070313	1417.562255859375	646.7496337890625	188.1997680664063	1372.216430664063	661.488525390625	269.1677856445313	1425.992431640625	635.8629150390625	267.8478088378906	1379.371948242188	724.8818359375	603.2975463867188	1422.708129882813	662.1664428710938	601.7774658203125	1384.435302734375	721.2245483398438	713.8651733398438	1420.905151367188	663.0247802734375	711.9277954101563	1383.0810546875	767.718017578125	437.4976806640625	1361.426635742188	
114	0.7533333333333334	693.40283203125	98.37480926513672	1047.54345703125	709.8386840820313	109.4775085449219	1133.822631835938	822.62744140625	983.6536865234375	1113.195190429688	746.5816650390625	902.6719970703125	1069.510620117188	627.7691650390625	38.73552703857422	1081.562133789063	664.3285522460938	60.67413711547852	1044.095092773438	635.2000732421875	88.45137786865234	1084.020751953125	706.9998168945313	459.768798828125	1051.583984375	757.5444946289063	1046.710571289063	1080.486083984375	707.9468994140625	523.3627319335938	1058.156982421875	700.4197387695313	507.3705749511719	1187.356323242188	837.25390625	55.088623046875	1136.216918945313	835.7530517578125	70.02661895751953	1086.137573242188	810.7905883789063	51.4398307800293	1028.018310546875	663.5770263671875	1019.783325195313	1200.619750976563	683.4943237304688	193.3027038574219	1037.433227539063	644.1395263671875	188.1049652099609	1073.117065429688	671.0598754882813	272.3291320800781	1031.87646484375	631.6695556640625	267.8875427246094	1067.676635742188	685.0016479492188	642.0639038085938	1056.129516601563	638.0062866210938	644.01025390625	1112.351318359375	689.8504638671875	752.8308715820313	1059.08984375	649.145751953125	753.891845703125	1115.612915039063	757.194580078125	440.4259643554688	1108.140869140625	698.3936767578125	99.47977447509766	1416.468994140625	714.2387084960938	115.5127792358398	1328.991088867188	829.3926391601563	980.1211547851563	1347.83349609375	760.0943603515625	898.636474609375	1394.912963867188	630.5123291015625	38.05706024169922	1376.596557617188	667.3887939453125	60.45029067993164	1418.107055664063	638.5691528320313	86.49470520019531	1374.3017578125	721.4136962890625	456.6995544433594	1418.707885742188	774.939453125	1048.799072265625	1388.661499023438	725.7553100585938	523.9339599609375	1412.185302734375	699.612060546875	503.5386352539063	1282.260498046875	835.228759765625	59.97271728515625	1326.83154296875	843.481689453125	69.22103118896484	1372.660278320313	812.1007690429688	49.24810028076172	1436.712158203125	666.491455078125	1014.721923828125	1276.531982421875	671.8052978515625	185.2155456542969	1417.564697265625	646.7521362304688	188.1905670166016	1372.22607421875	661.4979248046875	269.1647338867188	1425.992065429688	635.8689575195313	267.8545532226563	1379.378295898438	724.8761596679688	603.2996826171875	1422.7099609375	662.1670532226563	601.7806396484375	1384.441162109375	721.2122802734375	713.8638305664063	1420.9052734375	663.0208129882813	711.9263305664063	1383.079833984375	767.7305297851563	437.4878540039063	1361.426879882813	
115	0.76	693.400634765625	98.376953125	1047.555419921875	709.8425903320313	109.4855117797852	1133.821533203125	822.6098022460938	983.6524047851563	1113.18896484375	746.5868530273438	902.6754760742188	1069.526123046875	627.7734985351563	38.73012161254883	1081.55712890625	664.3273315429688	60.68047332763672	1044.076782226563	635.2020874023438	88.45216369628906	1084.01806640625	707.0135498046875	459.7742614746094	1051.588623046875	757.5269775390625	1046.707275390625	1080.499755859375	707.9389038085938	523.3648681640625	1058.159545898438	700.41943359375	507.3707580566406	1187.357177734375	837.2592163085938	55.07750701904297	1136.216552734375	835.75439453125	70.01837158203125	1086.139282226563	810.79248046875	51.44107818603516	1028.024169921875	663.561279296875	1019.786437988281	1200.614501953125	683.4966430664063	193.3086242675781	1037.442993164063	644.1484375	188.1058959960938	1073.109985351563	671.0629272460938	272.3177795410156	1031.872680664063	631.666259765625	267.8819274902344	1067.676025390625	684.9915161132813	642.0684814453125	1056.130981445313	638.0036010742188	644.005615234375	1112.35400390625	689.8496704101563	752.82421875	1059.090454101563	649.1419677734375	753.8914184570313	1115.60693359375	757.1937255859375	440.427001953125	1108.13671875	698.3853759765625	99.48322296142578	1416.470458984375	714.2449951171875	115.5054321289063	1328.996948242188	829.3828735351563	980.1218872070313	1347.829345703125	760.0792236328125	898.6448364257813	1394.916137695313	630.515869140625	38.05600738525391	1376.603149414063	667.3818359375	60.44354248046875	1418.1123046875	638.5687866210938	86.50009155273438	1374.302856445313	721.400390625	456.6885070800781	1418.555419921875	774.9185791015625	1048.805297851563	1388.657836914063	725.7509765625	523.9357299804688	1412.179077148438	699.609375	503.5364379882813	1282.265869140625	835.2246704101563	59.97233581542969	1326.827026367188	843.4835815429688	69.22543334960938	1372.659545898438	812.0982055664063	49.2510871887207	1436.714721679688	666.480712890625	1014.723876953125	1276.52880859375	671.80712890625	185.2077331542969	1417.566650390625	646.7546997070313	188.1924743652344	1372.238037109375	661.50146484375	269.1690979003906	1425.998779296875	635.8646240234375	267.8455200195313	1379.381713867188	724.8715209960938	603.30224609375	1422.712158203125	662.154052734375	601.7799682617188	1384.443237304688	721.20556640625	713.86181640625	1420.900512695313	663.0095825195313	711.9279174804688	1383.082275390625	767.7147827148438	437.5009765625	1361.423950195313	
116	0.7666666666666667	693.4146118164063	98.38487243652344	1047.538940429688	709.8338012695313	109.4807739257813	1133.81640625	822.60693359375	983.6572875976563	1113.200073242188	746.5721435546875	902.681640625	1069.512817382813	627.7742309570313	38.73031234741211	1081.5546875	664.33935546875	60.67368698120117	1044.082397460938	635.2094116210938	88.44691467285156	1084.01806640625	707.0084838867188	459.7763671875	1051.585571289063	757.5232543945313	1046.697143554688	1080.486206054688	707.9402465820313	523.3642578125	1058.159545898438	700.4195556640625	507.3699035644531	1187.354125976563	837.2515258789063	55.08839797973633	1136.213500976563	835.7484130859375	70.02907562255859	1086.130249023438	810.7904663085938	51.44442367553711	1028.02685546875	663.549560546875	1019.7822265625	1200.6103515625	683.496337890625	193.30126953125	1037.433959960938	644.1488647460938	188.1026306152344	1073.110595703125	671.068359375	272.3185424804688	1031.867553710938	631.673095703125	267.8856506347656	1067.6708984375	684.9985961914063	642.0736083984375	1056.126831054688	637.9990844726563	644.00732421875	1112.3427734375	689.8583984375	752.818115234375	1059.087280273438	649.1327514648438	753.8978271484375	1115.603271484375	757.1966552734375	440.4296569824219	1108.140625	698.38916015625	99.47745513916016	1416.472778320313	714.2431030273438	115.5144805908203	1328.9892578125	829.3713989257813	980.128173828125	1347.830444335938	760.0643920898438	898.642822265625	1394.911499023438	630.5150756835938	38.06029510498047	1376.600952148438	667.380615234375	60.45329666137695	1418.111938476563	638.5614624023438	86.49787139892578	1374.3056640625	721.4132080078125	456.6953430175781	1418.70166015625	774.8999633789063	1048.81494140625	1388.660766601563	725.7471313476563	523.922119140625	1412.178466796875	699.6138916015625	503.5416870117188	1282.263305664063	835.2277221679688	59.97229766845703	1326.834716796875	843.4815063476563	69.23308563232422	1372.662109375	812.0996704101563	49.25864791870117	1436.71484375	666.4703979492188	1014.718383789063	1276.527221679688	671.8046875	185.2046508789063	1417.57080078125	646.7576904296875	188.1936798095703	1372.237670898438	661.4974975585938	269.1616516113281	1425.996826171875	635.8659057617188	267.8400268554688	1379.3828125	724.8704833984375	603.2982788085938	1422.705444335938	662.1533203125	601.77197265625	1384.441772460938	721.1961059570313	713.86181640625	1420.904296875	663.0030517578125	711.9244995117188	1383.074096679688	767.717041015625	437.4939270019531	1361.414428710938	
